<?xml version="1.0" encoding="UTF-8" standalone="no"?>
<!-- Created with Inkscape (http://www.inkscape.org/) -->

<svg
   width="1000"
   height="1000"
   viewBox="0 0 264.58333 264.58333"
   version="1.1"
   id="svg5"
   inkscape:export-filename="logo.png"
   inkscape:export-xdpi="96"
   inkscape:export-ydpi="96"
   inkscape:version="1.2.2 (b0a8486541, 2022-12-01)"
   sodipodi:docname="logo_marketplace.svg"
   xmlns:inkscape="http://www.inkscape.org/namespaces/inkscape"
   xmlns:sodipodi="http://sodipodi.sourceforge.net/DTD/sodipodi-0.dtd"
   xmlns="http://www.w3.org/2000/svg"
   xmlns:svg="http://www.w3.org/2000/svg">
  <sodipodi:namedview
     id="namedview7"
     pagecolor="#ffffff"
     bordercolor="#000000"
     borderopacity="0.25"
     inkscape:showpageshadow="2"
     inkscape:pageopacity="0.0"
     inkscape:pagecheckerboard="0"
     inkscape:deskcolor="#d1d1d1"
     inkscape:document-units="mm"
     showgrid="false"
     inkscape:zoom="0.4098725"
     inkscape:cx="711.19677"
     inkscape:cy="476.9776"
     inkscape:window-width="1322"
     inkscape:window-height="699"
     inkscape:window-x="0"
     inkscape:window-y="0"
     inkscape:window-maximized="1"
     inkscape:current-layer="layer1" />
  <defs
     id="defs2">
    <rect
       x="81.535709"
       y="755.67511"
       width="832.18965"
       height="163.5587"
       id="rect1830" />
    <linearGradient
       id="linearGradient845"
       inkscape:swatch="solid">
      <stop
         style="stop-color:#1e25a7;stop-opacity:1;"
         offset="0"
         id="stop843" />
    </linearGradient>
  </defs>
  <g
     inkscape:label="Capa 1"
     inkscape:groupmode="layer"
     id="layer1">
    <path
       id="rect6351"
       style="fill:#000080;stroke:#0c1290;stroke-width:1.97221;stroke-dasharray:none;stroke-opacity:1"
       d="m 181.07683,1.3676672 c -23.63521,-0.0612 -42.00257,32.7661458 -41.0473,73.3623458 l 85.66992,-0.09921 C 224.57417,34.180125 204.64735,1.429713 181.07683,1.3676672 Z M 225.69945,74.63081 118.54023,74.90302 c -0.68466,-0.261357 -1.40919,-0.403952 -2.16055,-0.403952 H 24.766499 c -4.220765,0 -7.619031,4.422547 -7.619031,9.915506 v 6.245797 c 0,5.492951 3.398266,9.914719 7.619031,9.914719 h 86.973081 l -0.0597,0.82219 h 38.52203 c 4.22075,0 7.61905,4.42253 7.61905,9.9155 v 6.24499 c 0,5.49297 -3.3983,9.9155 -7.61905,9.9155 h -40.42586 l -0.0433,0.58968 H 46.618625 c -4.220768,0 -7.618424,4.42173 -7.618424,9.91471 v 6.24579 c 0,5.49297 3.397656,9.91552 7.618424,9.91552 h 61.210825 l -0.0763,1.04123 h 12.31765 c 4.22077,0 7.61904,4.42254 7.61904,9.91547 v 6.24582 c 0,5.49296 -3.39827,9.91471 -7.61904,9.91471 h -14.22089 l -0.10244,1.40311 H 73.571243 c -4.220763,0 -7.618422,4.42255 -7.618422,9.91552 v 6.24578 c 0,5.493 3.397659,9.91472 7.618422,9.91472 h 30.272447 l -0.0806,1.1063 h 28.07225 c 4.22078,0 7.61902,4.42175 7.61902,9.91473 v 6.24579 c 0,5.49295 -3.39824,9.9155 -7.61902,9.9155 h -29.97668 l -0.12136,1.6658 H 25.123852 c -4.220766,0 -7.619033,4.42175 -7.619033,9.91472 v 6.2458 c 0,5.49293 3.398267,9.91551 7.619033,9.91551 h 74.709712 l -0.0043,0.0604 h 28.252746 l 0.0238,0.32935 H 262.43839 L 248.65473,75.232375 h -0.7324 l 0.0244,-0.329355 h -22.2363 c -0.002,-0.09131 -0.009,-0.180994 -0.011,-0.27221 z M 183.56792,6.3238309 a 38.906422,67.320542 0 0 1 18.27433,8.9623651 38.906422,67.320542 0 0 1 19.48054,58.328778 h -38.90621 l -38.90622,0.165074 a 38.906422,67.320542 0 0 1 19.3976,-58.411315 38.906422,67.320542 0 0 1 20.65996,-9.0449021 z M 10.006528,128.13992 c -4.3698801,0 -7.8879615,4.57848 -7.8879615,10.26549 v 6.46643 c 0,5.68703 3.5180814,10.2655 7.8879615,10.2655 h 20.21599 c 4.369879,0 7.887962,-4.57847 7.887962,-10.2655 v -6.46643 c 0,-5.68701 -3.518083,-10.26549 -7.887962,-10.26549 z m 133.333692,27.01724 h 26.53307 c 4.35242,0 7.85686,4.55994 7.85686,10.22424 v 6.44021 c 0,5.66429 -3.50444,10.22424 -7.85686,10.22424 h -26.53307 c -4.35242,0 -7.85626,-4.55995 -7.85626,-10.22424 v -6.44021 c 0,-5.6643 3.50384,-10.22424 7.85626,-10.22424 z M 11.479843,182.70297 c -4.337651,0 -7.8294207,4.54504 -7.8294207,10.19009 v 6.41802 c 0,5.64509 3.4917697,10.19007 7.8294207,10.19007 h 32.281795 c 4.337651,0 7.829421,-4.54498 7.829421,-10.19007 v -6.41802 c 0,-5.64505 -3.49177,-10.19009 -7.829421,-10.19009 z" />
    <rect
       style="opacity:0.86;fill:none;stroke:none;stroke-width:1.465;stroke-dasharray:none;stroke-opacity:1"
       id="rect6956"
       width="265.53525"
       height="261.59177"
       x="0.19339174"
       y="0.9557476"
       ry="6.4561996" />
  </g>
</svg>
